<mxfile host="app.diagrams.net" modified="2023-07-07T09:52:32.233Z" agent="Mozilla/5.0 (Macintosh; Intel Mac OS X 10_15_7) AppleWebKit/537.36 (KHTML, like Gecko) Chrome/114.0.0.0 Safari/537.36" version="21.6.1" etag="W83c6Mur5fuzkvUGMm8A" type="github">
  <diagram name="第 1 页" id="hCfMUaZxw8Wn7eDtW-1t">
    <mxGraphModel>
      <root>
        <mxCell id="0" />
        <mxCell id="1" parent="0" />
      </root>
    </mxGraphModel>
  </diagram>
</mxfile>
